<svg width="19" height="19" viewBox="0 0 19 19" fill="none" xmlns="http://www.w3.org/2000/svg">
<path d="M9.50008 17.4167C7.37578 15.609 5.78928 13.9302 4.74058 12.3801C3.69189 10.83 3.16728 9.39498 3.16675 8.07501C3.16675 6.09584 3.80351 4.51911 5.07704 3.3448C6.35057 2.1705 7.82491 1.58334 9.50008 1.58334C11.1758 1.58334 12.6504 2.1705 13.9239 3.3448C15.1974 4.51911 15.8339 6.09584 15.8334 8.07501C15.8334 9.39445 15.3088 10.8295 14.2596 12.3801C13.2104 13.9307 11.6239 15.6096 9.50008 17.4167ZM7.12508 10.2917H8.70841V8.11459H10.2917V10.2917H11.8751V6.53126L9.50008 4.94793L7.12508 6.53126V10.2917Z" fill="#F52B2B"/>
</svg>
