<svg width="19" height="17" viewBox="0 0 19 17" fill="none" xmlns="http://www.w3.org/2000/svg">
<path d="M9.87958 5.1075L7.72626 1.73532C7.6002 1.49356 7.65724 1.2016 7.86844 1.06495C8.10998 0.938097 8.38274 0.997393 8.51851 1.20714L10.6718 4.59963C10.7979 4.84139 10.7409 5.13347 10.5296 5.27002C10.2887 5.38614 9.99355 5.30738 9.87958 5.1075ZM18.9194 5.73724C19.2658 6.36516 18.4073 6.87997 18.0053 7.09831C17.6532 7.07111 17.318 7.0339 16.9997 6.98657C16.6815 6.93918 16.4005 6.89517 16.1567 6.85452C15.8723 6.80034 15.6082 6.74619 15.3644 6.69199C15.3369 6.82745 15.2996 6.96963 15.2527 7.11859C15.2051 7.26755 15.1475 7.4233 15.08 7.58582C13.6953 7.28624 12.0644 6.47585 11.3016 5.22936L13.9018 2.5682L14.369 0.882111L15.3644 2.10098C16.0511 2.29402 17.0038 2.30757 17.2943 3.01511C17.5459 3.43894 17.5255 4.33777 17.8022 4.68089C17.9511 4.82985 18.1137 4.96529 18.2897 5.08717C18.4658 5.20906 18.6757 5.42577 18.9194 5.73724ZM9.16857 11.3846C8.55316 11.3803 7.91091 11.1668 7.29966 11.1612C6.94756 11.1206 6.81888 11.2763 6.91368 11.6284L7.76689 15.0615C7.75543 15.613 7.45584 16.0353 7.01527 16.1077C6.58651 16.1489 6.15534 15.7622 6.06048 15.4678L4.9635 11.1612C4.93643 11.0122 4.85177 10.9411 4.70957 10.9479C4.56737 10.9547 4.47596 11.0258 4.43532 11.1612L3.41961 15.4475C3.28569 15.8498 2.96111 16.113 2.56642 16.1179C1.98375 16.1077 1.58142 15.5665 1.69291 15.0615L2.93209 9.98297L3.03366 6.91551C1.95959 6.64302 0.60229 5.90823 0.0677729 4.88406C-0.0830079 4.55301 0.0262738 4.23191 0.311543 4.0715C0.64873 3.91741 1.03012 4.06577 1.16474 4.29494C1.69067 5.11813 2.8517 5.64272 3.64308 5.656H9.69672C9.3222 7.53471 9.11261 9.41347 9.16857 11.3846ZM10.6515 6.00134C11.677 7.33486 13.1548 8.17053 14.7347 8.5C14.5877 8.94018 14.3912 9.36846 14.2573 9.76965C14.1964 9.95247 14.2133 10.2199 14.3081 10.5721C14.6974 12.0634 15.1254 13.6557 15.5066 15.0412C15.6551 16.2018 14.0433 16.1771 13.8002 15.4678L12.9267 12.1363C12.6857 11.7271 12.0829 11.6316 11.9516 12.1363L11.1594 15.4475C10.7494 16.4699 9.2866 15.7825 9.45301 15.0615L10.2046 11.9738C10.2182 11.8654 10.2114 11.757 10.1843 11.6487C10.1974 9.76735 10.2574 7.84248 10.6515 6.00134Z" fill="white"/>
</svg>
