<svg width="25" height="21" viewBox="0 0 25 21" fill="none" xmlns="http://www.w3.org/2000/svg">
<path d="M24.2439 8.40286C24.2439 8.98354 24.0717 9.55118 23.7491 10.034C23.4264 10.5168 22.9679 10.8931 22.4314 11.1153C21.895 11.3376 21.3046 11.3957 20.7351 11.2824C20.1656 11.1691 19.6424 10.8895 19.2318 10.4789C18.8212 10.0683 18.5416 9.54517 18.4283 8.97564C18.315 8.40612 18.3732 7.8158 18.5954 7.27932C18.8176 6.74284 19.1939 6.2843 19.6767 5.9617C20.1596 5.63909 20.7272 5.4669 21.3079 5.4669C22.0865 5.4669 22.8333 5.77622 23.3839 6.32682C23.9345 6.87742 24.2439 7.6242 24.2439 8.40286ZM6.62804 8.40286C6.62804 7.82218 6.45585 7.25455 6.13324 6.77173C5.81063 6.28891 5.3521 5.9126 4.81562 5.69038C4.27914 5.46817 3.68882 5.41003 3.11929 5.52331C2.54977 5.6366 2.02663 5.91622 1.61603 6.32682C1.20543 6.73742 0.925804 7.26056 0.812519 7.83008C0.699234 8.39961 0.757376 8.98993 0.979592 9.52641C1.20181 10.0629 1.57812 10.5214 2.06094 10.844C2.54375 11.1666 3.11139 11.3388 3.69207 11.3388C4.47074 11.3388 5.21751 11.0295 5.76812 10.4789C6.31872 9.92831 6.62804 9.18153 6.62804 8.40286ZM8.72516 6.30574C9.30584 6.30574 9.87348 6.13355 10.3563 5.81095C10.8391 5.48834 11.2154 5.0298 11.4376 4.49332C11.6599 3.95684 11.718 3.36652 11.6047 2.797C11.4914 2.22748 11.2118 1.70434 10.8012 1.29373C10.3906 0.883131 9.86746 0.603507 9.29794 0.490222C8.72842 0.376938 8.13809 0.435079 7.60162 0.657296C7.06514 0.879512 6.6066 1.25582 6.28399 1.73864C5.96138 2.22146 5.78919 2.7891 5.78919 3.36978C5.78919 4.14844 6.09852 4.89522 6.64912 5.44582C7.19972 5.99642 7.94649 6.30574 8.72516 6.30574ZM16.2748 6.30574C16.8555 6.30574 17.4231 6.13355 17.9059 5.81095C18.3887 5.48834 18.7651 5.0298 18.9873 4.49332C19.2095 3.95684 19.2676 3.36652 19.1543 2.797C19.0411 2.22748 18.7614 1.70434 18.3508 1.29373C17.9402 0.883131 17.4171 0.603507 16.8476 0.490222C16.2781 0.376938 15.6877 0.435079 15.1512 0.657296C14.6148 0.879512 14.1562 1.25582 13.8336 1.73864C13.511 2.22146 13.3388 2.7891 13.3388 3.36978C13.3388 4.14844 13.6481 4.89522 14.1988 5.44582C14.7494 5.99642 15.4961 6.30574 16.2748 6.30574ZM18.6991 12.6873C18.273 12.4522 17.8974 12.1354 17.5939 11.7551C17.2904 11.3747 17.0648 10.9382 16.9301 10.4706C16.6512 9.51145 16.0686 8.66871 15.2697 8.06904C14.4708 7.46938 13.4989 7.14519 12.5 7.14519C11.5011 7.14519 10.5292 7.46938 9.73028 8.06904C8.9314 8.66871 8.34872 9.51145 8.06981 10.4706C7.80039 11.4116 7.16876 12.2072 6.31347 12.6831C5.493 13.127 4.84395 13.8319 4.46898 14.6861C4.09401 15.5403 4.01454 16.4952 4.24312 17.3996C4.4717 18.3041 4.99529 19.1065 5.73107 19.68C6.46686 20.2535 7.37285 20.5653 8.30574 20.5662C8.86479 20.5678 9.41837 20.4561 9.9331 20.238C11.5742 19.5612 13.4164 19.5612 15.0574 20.238C16.0514 20.6703 17.1742 20.701 18.1903 20.3236C19.2064 19.9463 20.037 19.1902 20.5079 18.214C20.9788 17.2377 21.0535 16.117 20.7163 15.0869C20.3791 14.0567 19.6561 13.1971 18.6991 12.6883V12.6873Z" fill="#AB6500"/>
</svg>
