<svg width="30" height="30" viewBox="0 0 30 30" fill="none" xmlns="http://www.w3.org/2000/svg">
<path d="M25 24.1667L23 22.1667M14.5 23.1667C15.7476 23.1667 16.9829 22.9209 18.1355 22.4435C19.2881 21.9661 20.3354 21.2663 21.2175 20.3842C22.0997 19.502 22.7994 18.4547 23.2769 17.3021C23.7543 16.1496 24 14.9142 24 13.6667C24 12.4191 23.7543 11.1838 23.2769 10.0312C22.7994 8.87857 22.0997 7.8313 21.2175 6.94914C20.3354 6.06699 19.2881 5.36722 18.1355 4.8898C16.9829 4.41238 15.7476 4.16666 14.5 4.16666C11.9804 4.16666 9.56408 5.16755 7.78249 6.94914C6.00089 8.73074 5 11.1471 5 13.6667C5 16.1862 6.00089 18.6026 7.78249 20.3842C9.56408 22.1658 11.9804 23.1667 14.5 23.1667Z" stroke="#1D1D1D" stroke-width="1.5" stroke-linecap="round" stroke-linejoin="round"/>
<path d="M16.7969 15.3988L17.3199 15.9293L18.4199 16.1743L18.1659 16.9727L18.3135 17.6059L18.7479 17.4654L19.2644 16.4857L19.5987 15.4232C18.868 14.9044 18.634 14.2147 18.3426 13.4932L16.7969 15.3988Z" fill="#E27022"/>
<path d="M13.5898 15.2828L13.2319 15.8419L12.9204 17.3243L12.6052 17.6694L12.0267 17.4554L11.9612 16.4224C11.9612 16.4224 12.0596 15.5348 12.1579 15.1342C12.2563 14.7336 13.2073 14.6687 13.2073 14.6687L13.5898 15.2828Z" fill="#E27022"/>
<path d="M20.7105 9.9191L20.2154 9.85751L19.3713 10.1639C19.289 10.6903 19.2097 11.2171 19.1334 11.7444L18.3334 12.4966L17.0366 12.6743L15.9229 12.1954L12.8672 11.9699L11.5997 12.2135L10.3554 11.6716L9.51723 11.115L8.80437 11.2606L9.1487 11.9327L8.49585 12.9362L8.681 13.7699C8.681 13.7699 9.592 13.7718 10.0406 13.8781L10.7088 13.6426C10.6012 14.1052 10.8438 14.5892 11.0134 15.0081C10.4493 15.2855 10.1516 15.5216 9.98689 15.921C9.91134 16.1042 9.86392 16.5635 9.83145 16.8354L10.3822 17.2411C10.3822 17.2411 11.157 17.1797 10.8434 16.3405L11.3941 15.8028C11.6896 15.6466 12.2697 15.3748 12.2697 15.3748L15.1227 15.5181L15.6624 16.1455L15.4007 17.6098L15.9038 17.5567L16.865 16.2778V15.5911C16.865 15.5911 17.837 14.5024 18.0495 13.8425L18.0521 13.8458C18.0521 13.8458 19.1944 13.2548 19.632 12.3652C20.3398 11.3708 19.4986 10.4025 20.5052 10.7297C20.7589 10.8122 21.0725 10.3 20.765 9.98009L20.7093 9.9189L20.7105 9.9191Z" fill="#F4AA41"/>
<path d="M9.95173 13.6988C9.49269 13.8956 8.98427 13.8627 8.98427 13.8627C8.6543 13.8915 8.37136 13.0737 8.49532 12.9315L9.14817 11.928L8.80384 11.2557C8.80384 11.2557 9.78921 10.9773 10.3549 11.6669C10.4226 11.7495 10.5111 11.8131 10.6065 11.8611L10.6245 11.8702C11.1346 12.1238 11.7157 12.1793 12.2743 12.0665C13.6953 11.7797 15.0427 11.797 16.544 12.5018C18.0442 13.2067 19.4029 12.059 19.2278 11.0261C19.0717 10.1117 19.9286 9.53404 20.5559 10.0423M10.6581 16.2725C10.7762 15.8384 12.3288 15.5547 12.3288 15.5547C12.3288 15.5547 12.9639 15.3184 12.6094 14.6685" stroke="#1D1D1D" stroke-width="0.5" stroke-miterlimit="10" stroke-linecap="round" stroke-linejoin="round"/>
<path d="M11.1008 13.2069C10.7972 13.5678 10.3348 14.152 11.0142 15.0089C11.0142 15.0089 9.68491 15.5702 9.83248 16.5894C9.83248 16.5894 9.90371 17.0766 10.3051 17.062M12.1239 16.5105C11.8965 17.9378 12.5934 17.7019 12.7176 17.6244C12.9434 17.4833 13.0812 15.6855 13.4952 15.399C13.8084 15.1818 15.1021 15.3396 15.1021 15.3396M15.0635 14.7987C15.0814 15.1415 15.2117 15.4681 15.4047 15.752C15.535 15.9435 15.7595 16.2085 15.6906 16.3393C14.8093 18.0118 15.813 17.721 15.9037 17.5528C16.531 16.3885 17.1088 16.7453 16.818 15.4829C16.818 15.4829 17.8549 15.1267 17.9041 13.9133" stroke="#1D1D1D" stroke-width="0.5" stroke-miterlimit="10" stroke-linecap="round" stroke-linejoin="round"/>
<path d="M16.9741 15.6369C16.9741 15.6369 17.4399 16.2673 18.5006 16.1668C18.5006 16.1668 17.8462 17.4973 18.5006 17.6661C18.8778 17.7633 19.4297 15.4703 19.4297 15.4703C19.4297 15.4703 19.0678 15.3141 18.6523 14.6474" stroke="#1D1D1D" stroke-width="0.5" stroke-miterlimit="10" stroke-linecap="round" stroke-linejoin="round"/>
</svg>
