<svg width="37" height="37" viewBox="0 0 37 37" fill="none" xmlns="http://www.w3.org/2000/svg">
<rect x="6" y="10" width="24" height="11" fill="white"/>
<path fill-rule="evenodd" clip-rule="evenodd" d="M4.89009 7.97349C3.08325 9.77878 3.08325 12.6864 3.08325 18.5C3.08325 24.3136 3.08325 27.2212 4.89009 29.0265C6.69538 30.8333 9.60296 30.8333 15.4166 30.8333H21.5833C27.3969 30.8333 30.3045 30.8333 32.1098 29.0265C33.9166 27.2212 33.9166 24.3136 33.9166 18.5C33.9166 12.6864 33.9166 9.77878 32.1098 7.97349C30.3045 6.16666 27.3969 6.16666 21.5833 6.16666H15.4166C9.60296 6.16666 6.69538 6.16666 4.89009 7.97349ZM28.6379 11.5933C28.8341 11.8289 28.9287 12.1327 28.901 12.438C28.8732 12.7432 28.7254 13.025 28.4899 13.2213L25.1044 16.0426C23.737 17.1834 22.63 18.1053 21.6511 18.7343C20.6336 19.3895 19.6423 19.8027 18.4999 19.8027C17.3575 19.8027 16.3663 19.388 15.3472 18.7343C14.3698 18.1053 13.2629 17.1819 11.8954 16.0441L8.50992 13.2229C8.2742 13.0266 8.1261 12.7447 8.0982 12.4393C8.0703 12.1338 8.16489 11.8298 8.36115 11.5941C8.55741 11.3584 8.83927 11.2103 9.14472 11.1824C9.45018 11.1545 9.7542 11.2491 9.98992 11.4453L13.3199 14.2188C14.7583 15.4167 15.7558 16.2461 16.6006 16.7887C17.4161 17.3129 17.9696 17.4902 18.5015 17.4902C19.0333 17.4902 19.5868 17.3144 20.4023 16.7887C21.2456 16.2461 22.2446 15.4167 23.683 14.2188L27.0115 11.4438C27.2472 11.2478 27.5511 11.1534 27.8564 11.1815C28.1617 11.2095 28.4418 11.3577 28.6379 11.5933Z" fill="#D30D9B"/>
</svg>
