<svg width="49" height="49" viewBox="0 0 49 49" fill="none" xmlns="http://www.w3.org/2000/svg">
<circle cx="24.5" cy="24.5" r="18.5" fill="#F4AA41"/>
<path d="M36.2439 22.4029C36.2439 22.9835 36.0717 23.5512 35.7491 24.034C35.4264 24.5168 34.9679 24.8931 34.4314 25.1153C33.895 25.3376 33.3046 25.3957 32.7351 25.2824C32.1656 25.1691 31.6424 24.8895 31.2318 24.4789C30.8212 24.0683 30.5416 23.5452 30.4283 22.9756C30.315 22.4061 30.3732 21.8158 30.5954 21.2793C30.8176 20.7428 31.1939 20.2843 31.6767 19.9617C32.1596 19.6391 32.7272 19.4669 33.3079 19.4669C34.0865 19.4669 34.8333 19.7762 35.3839 20.3268C35.9345 20.8774 36.2439 21.6242 36.2439 22.4029ZM18.628 22.4029C18.628 21.8222 18.4558 21.2545 18.1332 20.7717C17.8106 20.2889 17.3521 19.9126 16.8156 19.6904C16.2791 19.4682 15.6888 19.41 15.1193 19.5233C14.5498 19.6366 14.0266 19.9162 13.616 20.3268C13.2054 20.7374 12.9258 21.2606 12.8125 21.8301C12.6992 22.3996 12.7574 22.9899 12.9796 23.5264C13.2018 24.0629 13.5781 24.5214 14.0609 24.844C14.5438 25.1666 15.1114 25.3388 15.6921 25.3388C16.4707 25.3388 17.2175 25.0295 17.7681 24.4789C18.3187 23.9283 18.628 23.1815 18.628 22.4029ZM20.7252 20.3057C21.3058 20.3057 21.8735 20.1336 22.3563 19.8109C22.8391 19.4883 23.2154 19.0298 23.4376 18.4933C23.6599 17.9568 23.718 17.3665 23.6047 16.797C23.4914 16.2275 23.2118 15.7043 22.8012 15.2937C22.3906 14.8831 21.8675 14.6035 21.2979 14.4902C20.7284 14.3769 20.1381 14.4351 19.6016 14.6573C19.0651 14.8795 18.6066 15.2558 18.284 15.7386C17.9614 16.2215 17.7892 16.7891 17.7892 17.3698C17.7892 18.1484 18.0985 18.8952 18.6491 19.4458C19.1997 19.9964 19.9465 20.3057 20.7252 20.3057ZM28.2748 20.3057C28.8555 20.3057 29.4231 20.1336 29.9059 19.8109C30.3887 19.4883 30.7651 19.0298 30.9873 18.4933C31.2095 17.9568 31.2676 17.3665 31.1543 16.797C31.0411 16.2275 30.7614 15.7043 30.3508 15.2937C29.9402 14.8831 29.4171 14.6035 28.8476 14.4902C28.2781 14.3769 27.6877 14.4351 27.1512 14.6573C26.6148 14.8795 26.1562 15.2558 25.8336 15.7386C25.511 16.2215 25.3388 16.7891 25.3388 17.3698C25.3388 18.1484 25.6481 18.8952 26.1988 19.4458C26.7494 19.9964 27.4961 20.3057 28.2748 20.3057ZM30.6991 26.6873C30.273 26.4522 29.8974 26.1354 29.5939 25.7551C29.2904 25.3747 29.0648 24.9382 28.9301 24.4706C28.6512 23.5115 28.0686 22.6687 27.2697 22.069C26.4708 21.4694 25.4989 21.1452 24.5 21.1452C23.5011 21.1452 22.5292 21.4694 21.7303 22.069C20.9314 22.6687 20.3487 23.5115 20.0698 24.4706C19.8004 25.4116 19.1688 26.2072 18.3135 26.6831C17.493 27.127 16.8439 27.8319 16.469 28.6861C16.094 29.5403 16.0145 30.4952 16.2431 31.3996C16.4717 32.3041 16.9953 33.1065 17.7311 33.68C18.4669 34.2535 19.3728 34.5653 20.3057 34.5662C20.8648 34.5678 21.4184 34.4561 21.9331 34.238C23.5742 33.5612 25.4164 33.5612 27.0574 34.238C28.0514 34.6703 29.1742 34.701 30.1903 34.3236C31.2064 33.9463 32.037 33.1902 32.5079 32.214C32.9788 31.2377 33.0535 30.117 32.7163 29.0869C32.3791 28.0567 31.6561 27.1971 30.6991 26.6883V26.6873Z" fill="#AB6500"/>
</svg>
